<svg width="101" height="100" viewBox="0 0 101 100" fill="none" xmlns="http://www.w3.org/2000/svg">
<g clip-path="url(#clip0_13_42)">
<g clip-path="url(#clip1_13_42)">
<path d="M50.5 100C50.5 100 88 64.4625 88 37.5C88 27.5544 84.0491 18.0161 77.0165 10.9835C69.9839 3.95088 60.4456 0 50.5 0C40.5544 0 31.0161 3.95088 23.9835 10.9835C16.9509 18.0161 13 27.5544 13 37.5C13 64.4625 50.5 100 50.5 100ZM50.5 56.25C45.5272 56.25 40.7581 54.2746 37.2417 50.7583C33.7254 47.2419 31.75 42.4728 31.75 37.5C31.75 32.5272 33.7254 27.7581 37.2417 24.2417C40.7581 20.7254 45.5272 18.75 50.5 18.75C55.4728 18.75 60.2419 20.7254 63.7583 24.2417C67.2746 27.7581 69.25 32.5272 69.25 37.5C69.25 42.4728 67.2746 47.2419 63.7583 50.7583C60.2419 54.2746 55.4728 56.25 50.5 56.25Z" fill="#D13737"/>
</g>
</g>
<defs>
<clipPath id="clip0_13_42">
<rect width="100" height="100" fill="white" transform="translate(0.5)"/>
</clipPath>
<clipPath id="clip1_13_42">
<rect width="100" height="100" fill="white" transform="translate(0.5)"/>
</clipPath>
</defs>
</svg>
